<svg viewBox="0 0 395.5199999999999 85.54548959412406" height="85.54548959412406" width="395.5199999999999"><g><svg viewBox="0 0 482.066943359375 104.2643929177301" height="85.54548959412406" width="395.5199999999999"><g><svg viewBox="0 0 482.066943359375 104.2643929177301" height="104.2643929177301" width="482.066943359375"><g id="textblocktransform"><svg viewBox="0 0 482.066943359375 104.2643929177301" height="104.2643929177301" width="482.066943359375" id="textblock"><g><svg viewBox="0 0 482.066943359375 76.673291015625" height="76.673291015625" width="482.066943359375"><g><svg><g></g><g></g></svg></g><g><svg><g><svg></svg></g><g></g></svg></g><g id="text-0"><svg viewBox="0 0 482.066943359375 76.673291015625" height="76.673291015625" width="482.066943359375"><g transform="matrix(1,0,0,1,0,14.069067382812499)"><svg width="195.6787109375" viewBox="1.1699999570846558 -36.7400016784668 195.6699981689453 47.380001068115234" height="47.3876953125" data-palette-color="#000000"><path d="M13.09 0L8.33 0 1.17-33.84 5.35-33.84 8.91-15.19Q9.4-12.45 9.92-9.74 10.45-7.03 10.91-4.27L10.91-4.27 11.11-4.27Q11.69-7.03 12.32-9.74 12.94-12.45 13.55-15.19L13.55-15.19 18.43-33.84 22.09-33.84 26.78-15.19Q27.44-12.48 28.08-9.75 28.71-7.03 29.32-4.27L29.32-4.27 29.52-4.27Q30.03-7.03 30.51-9.75 30.98-12.48 31.47-15.19L31.47-15.19 35.23-33.84 39.11-33.84 31.88 0 27.1 0 21.9-20.75Q21.46-22.78 21.04-24.65 20.63-26.51 20.24-28.49L20.24-28.49 20.04-28.49Q19.65-26.51 19.2-24.65 18.75-22.78 18.33-20.75L18.33-20.75 13.09 0ZM54.71 0.61L54.71 0.61Q51.41 0.61 48.72-0.95 46.02-2.51 44.42-5.44 42.82-8.37 42.82-12.45L42.82-12.45Q42.82-16.53 44.42-19.48 46.02-22.44 48.58-24.02 51.14-25.61 54-25.61L54-25.61Q58.71-25.61 61.3-22.46 63.89-19.31 63.89-13.89L63.89-13.89Q63.89-12.52 63.74-11.57L63.74-11.57 46.73-11.57Q46.92-7.5 49.22-5 51.51-2.51 55.17-2.51L55.17-2.51Q57.05-2.51 58.62-3.02 60.18-3.52 61.52-4.42L61.52-4.42 62.91-1.95Q61.28-0.83 59.3-0.11 57.32 0.61 54.71 0.61ZM46.68-14.43L46.68-14.43 60.4-14.43Q60.4-18.36 58.74-20.41 57.08-22.46 54.05-22.46L54.05-22.46Q51.34-22.46 49.2-20.36 47.07-18.26 46.68-14.43ZM80.98 0.61L80.98 0.61Q79.24 0.61 77.36-0.23 75.48-1.07 73.82-2.56L73.82-2.56 73.65-2.56 73.31 0 70.11 0 70.11-36.74 74.07-36.74 74.07-26.64 73.92-22.05Q75.7-23.56 77.74-24.58 79.78-25.61 81.9-25.61L81.9-25.61Q86.79-25.61 89.33-22.14 91.87-18.68 91.87-12.87L91.87-12.87Q91.87-8.62 90.35-5.6 88.84-2.59 86.36-0.99 83.88 0.61 80.98 0.61ZM80.37-2.71L80.37-2.71Q83.56-2.71 85.68-5.43 87.79-8.15 87.79-12.82L87.79-12.82Q87.79-17.04 86.2-19.68 84.61-22.31 80.98-22.31L80.98-22.31Q79.34-22.31 77.64-21.4 75.95-20.48 74.07-18.75L74.07-18.75 74.07-5.4Q75.78-3.93 77.44-3.32 79.1-2.71 80.37-2.71ZM102.51 10.64L98.55 10.64 98.55-24.98 101.85-24.98 102.21-22.09 102.31-22.09Q104.02-23.49 106.11-24.55 108.2-25.61 110.34-25.61L110.34-25.61Q115.23-25.61 117.77-22.14 120.31-18.68 120.31-12.87L120.31-12.87Q120.31-8.62 118.79-5.6 117.28-2.59 114.8-0.99 112.32 0.61 109.42 0.61L109.42 0.61Q107.71 0.61 105.95-0.15 104.19-0.9 102.41-2.29L102.41-2.29 102.51 2.1 102.51 10.64ZM108.81-2.71L108.81-2.71Q112-2.71 114.12-5.43 116.23-8.15 116.23-12.82L116.23-12.82Q116.23-17.04 114.64-19.68 113.05-22.31 109.42-22.31L109.42-22.31Q107.78-22.31 106.1-21.4 104.41-20.48 102.51-18.75L102.51-18.75 102.51-5.4Q104.29-3.93 105.91-3.32 107.54-2.71 108.81-2.71ZM132.8 0.61L132.8 0.61Q129.68 0.61 127.58-1.21 125.48-3.03 125.48-6.42L125.48-6.42Q125.48-10.52 129.2-12.72 132.92-14.92 140.96-15.82L140.96-15.82Q140.96-17.48 140.51-18.97 140.05-20.46 138.92-21.41 137.78-22.36 135.68-22.36L135.68-22.36Q133.46-22.36 131.52-21.51 129.58-20.65 128.12-19.73L128.12-19.73 126.58-22.36Q128.24-23.51 130.76-24.56 133.29-25.61 136.32-25.61L136.32-25.61Q140.88-25.61 142.9-22.8 144.91-20 144.91-15.41L144.91-15.41 144.91 0 141.62 0 141.3-3.03 141.15-3.03Q139.35-1.54 137.23-0.46 135.12 0.61 132.8 0.61ZM133.88-2.56L133.88-2.56Q135.76-2.56 137.4-3.44 139.05-4.32 140.96-5.96L140.96-5.96 140.96-13.18Q136.64-12.65 134.1-11.77 131.56-10.89 130.46-9.64 129.36-8.4 129.36-6.74L129.36-6.74Q129.36-4.52 130.68-3.54 132-2.56 133.88-2.56ZM162.68 0.61L162.68 0.61Q159.39 0.61 156.75-0.93 154.11-2.47 152.58-5.38 151.04-8.3 151.04-12.45L151.04-12.45Q151.04-16.63 152.7-19.57 154.36-22.51 157.08-24.06 159.8-25.61 162.98-25.61L162.98-25.61Q165.47-25.61 167.22-24.76 168.98-23.9 170.3-22.66L170.3-22.66 168.3-20.19Q167.25-21.17 165.97-21.74 164.68-22.31 163.15-22.31L163.15-22.31Q160.83-22.31 159.01-21.07 157.19-19.82 156.14-17.61 155.09-15.41 155.09-12.45L155.09-12.45Q155.09-8.06 157.29-5.36 159.48-2.66 163.05-2.66L163.05-2.66Q164.83-2.66 166.34-3.34 167.86-4.03 169.01-5.08L169.01-5.08 170.76-2.56Q167.32 0.61 162.68 0.61ZM180.23 0L176.33 0 176.33-36.74 180.23-36.74 180.23-11.57 180.38-11.57 191.27-24.98 195.69-24.98 187.34-14.94 196.84 0 192.51 0 185.09-12.21 180.23-6.64 180.23 0Z" opacity="1" transform="matrix(1,0,0,1,0,0)" fill="#000000" class="undefined-w-0"></path></svg></g><g><svg xmlns="http://www.w3.org/2000/svg" data-name="Layer 1" viewBox="0 0 128 128" x="213.780810546875" y="0" height="76.673291015625" width="76.673291015625" class="icon-b-0" data-fill-palette-color="accent" id="b-0"><path d="M47.83 63.19A2 2 0 0 0 47.65 62.87V62.81A2 2 0 0 0 47.42 62.56L29.42 46.56A2 2 0 0 0 26.76 49.56L40.73 62H2A2 2 0 0 0 2 66H40.74L26.67 78.5A2 2 0 1 0 29.33 81.5L47.33 65.5 47.38 65.44 47.49 65.32A2 2 0 0 0 47.64 65.14L47.73 64.99A1.2 1.2 0 0 0 47.9 64.59C47.9 64.53 47.9 64.47 47.96 64.41A2 2 0 0 0 47.96 64.09S48 64 48 64A2 2 0 0 0 47.83 63.19" fill="#d2d6dc" data-fill-palette-color="accent"></path><path d="M124 114H122V108A4 4 0 0 0 118 104H115V18H120A2 2 0 0 0 122 16V2A2 2 0 0 0 120 0H58A2 2 0 0 0 56 2V16A2 2 0 0 0 58 18H63V104H60A4 4 0 0 0 56 108V114H54A4 4 0 0 0 50 118V126A2 2 0 0 0 52 128H126A2 2 0 0 0 128 126V118A4 4 0 0 0 124 114M67 18H111V104H67ZM124 124H54V118H124Z" fill="#d2d6dc" data-fill-palette-color="accent"></path><path d="M105.35 27.28L73.32 22A1.92 1.92 0 0 0 71.71 22.45 2 2 0 0 0 71 24V98A2 2 0 0 0 73.32 100L105.32 94.76A2 2 0 0 0 107 92.76V29.24A2 2 0 0 0 107 28.86 2.07 2.07 0 0 0 105.35 27.28M103 63H101A2 2 0 0 1 101 59H103Z" fill="#d2d6dc" data-fill-palette-color="accent"></path></svg></g><g transform="matrix(1,0,0,1,308.556201171875,15.216528320312499)"><svg width="173.5107421875" viewBox="3.6600000858306885 -35.599998474121094 173.5 36.209999084472656" height="36.2060546875" data-palette-color="#000000"><path d="M8.23 0L4.27 0 4.27-24.98 8.23-24.98 8.23 0ZM6.32-30.25L6.32-30.25Q5.13-30.25 4.39-30.99 3.66-31.74 3.66-32.98L3.66-32.98Q3.66-34.13 4.39-34.86 5.13-35.6 6.32-35.6L6.32-35.6Q7.52-35.6 8.25-34.86 8.98-34.13 8.98-32.98L8.98-32.98Q8.98-31.74 8.25-30.99 7.52-30.25 6.32-30.25ZM20.8 0L16.84 0 16.84-24.98 20.14-24.98 20.51-21.39 20.6-21.39Q22.41-23.17 24.44-24.39 26.46-25.61 29.05-25.61L29.05-25.61Q32.96-25.61 34.79-23.13 36.62-20.65 36.62-15.87L36.62-15.87 36.62 0 32.71 0 32.71-15.36Q32.71-18.92 31.56-20.56 30.42-22.19 27.81-22.19L27.81-22.19Q25.88-22.19 24.31-21.17 22.75-20.14 20.8-18.19L20.8-18.19 20.8 0ZM65.4 0L61.39 0 61.39-33.84 71.84-33.84Q75.29-33.84 77.93-32.93 80.58-32.03 82.08-29.97 83.59-27.91 83.59-24.41L83.59-24.41Q83.59-21.07 82.08-18.86 80.58-16.65 77.93-15.56 75.29-14.48 71.84-14.48L71.84-14.48 65.4-14.48 65.4 0ZM65.4-30.54L65.4-17.72 71.23-17.72Q75.24-17.72 77.41-19.38 79.58-21.04 79.58-24.41L79.58-24.41Q79.58-27.83 77.41-29.19 75.24-30.54 71.23-30.54L71.23-30.54 65.4-30.54ZM84.51 0L80 0 71.01-15.6 74.26-17.6 84.51 0ZM100.11 0.61L100.11 0.61Q96.82 0.61 94.12-0.95 91.42-2.51 89.82-5.44 88.22-8.37 88.22-12.45L88.22-12.45Q88.22-16.53 89.82-19.48 91.42-22.44 93.98-24.02 96.55-25.61 99.4-25.61L99.4-25.61Q104.12-25.61 106.7-22.46 109.29-19.31 109.29-13.89L109.29-13.89Q109.29-12.52 109.15-11.57L109.15-11.57 92.13-11.57Q92.32-7.5 94.62-5 96.91-2.51 100.58-2.51L100.58-2.51Q102.46-2.51 104.02-3.02 105.58-3.52 106.92-4.42L106.92-4.42 108.32-1.95Q106.68-0.83 104.7-0.11 102.72 0.61 100.11 0.61ZM92.08-14.43L92.08-14.43 105.8-14.43Q105.8-18.36 104.14-20.41 102.48-22.46 99.45-22.46L99.45-22.46Q96.74-22.46 94.61-20.36 92.47-18.26 92.08-14.43ZM121.28 0.61L121.28 0.61Q118.15 0.61 116.05-1.21 113.95-3.03 113.95-6.42L113.95-6.42Q113.95-10.52 117.68-12.72 121.4-14.92 129.43-15.82L129.43-15.82Q129.43-17.48 128.98-18.97 128.53-20.46 127.39-21.41 126.26-22.36 124.16-22.36L124.16-22.36Q121.94-22.36 119.99-21.51 118.05-20.65 116.59-19.73L116.59-19.73 115.05-22.36Q116.71-23.51 119.24-24.56 121.76-25.61 124.79-25.61L124.79-25.61Q129.36-25.61 131.37-22.8 133.39-20 133.39-15.41L133.39-15.41 133.39 0 130.09 0 129.77-3.03 129.63-3.03Q127.82-1.54 125.71-0.46 123.6 0.61 121.28 0.61ZM122.35-2.56L122.35-2.56Q124.23-2.56 125.88-3.44 127.53-4.32 129.43-5.96L129.43-5.96 129.43-13.18Q125.11-12.65 122.57-11.77 120.03-10.89 118.93-9.64 117.83-8.4 117.83-6.74L117.83-6.74Q117.83-4.52 119.15-3.54 120.47-2.56 122.35-2.56ZM151.16 0.61L151.16 0.61Q147.86 0.61 145.22-0.93 142.59-2.47 141.05-5.38 139.51-8.3 139.51-12.45L139.51-12.45Q139.51-16.63 141.17-19.57 142.83-22.51 145.55-24.06 148.28-25.61 151.45-25.61L151.45-25.61Q153.94-25.61 155.7-24.76 157.46-23.9 158.77-22.66L158.77-22.66 156.77-20.19Q155.72-21.17 154.44-21.74 153.16-22.31 151.62-22.31L151.62-22.31Q149.3-22.31 147.48-21.07 145.66-19.82 144.61-17.61 143.56-15.41 143.56-12.45L143.56-12.45Q143.56-8.06 145.76-5.36 147.96-2.66 151.52-2.66L151.52-2.66Q153.31-2.66 154.82-3.34 156.33-4.03 157.48-5.08L157.48-5.08 159.24-2.56Q155.8 0.61 151.16 0.61ZM172.52 0.61L172.52 0.61Q168.59 0.61 167.05-1.66 165.51-3.93 165.51-7.62L165.51-7.62 165.51-21.73 161.8-21.73 161.8-24.78 165.73-24.98 166.19-33.08 169.49-33.08 169.49-24.98 176.35-24.98 176.35-21.73 169.49-21.73 169.49-7.52Q169.49-5.2 170.34-3.91 171.2-2.61 173.4-2.61L173.4-2.61Q174.05-2.61 174.79-2.75 175.52-2.88 176.28-3.22L176.28-3.22 177.16-0.44Q176.15 0 174.96 0.31 173.76 0.61 172.52 0.61Z" opacity="1" transform="matrix(1,0,0,1,0,0)" fill="#000000" class="undefined-w-1"></path></svg></g></svg></g></svg></g><g transform="matrix(1,0,0,1,92.07478618164063,85.22067158203124)"><svg viewBox="0 0 297.9173709960937 19.04372133569885" height="19.04372133569885" width="297.9173709960937"><g transform="matrix(1,0,0,1,0,0)"><svg width="297.9173709960937" viewBox="4 -38.70000076293945 777.4000244140625 49.70000076293945" height="19.04372133569885" data-palette-color="#61777f"><path d="M4-33.5L11.1-34.75 10.4-13 11 0 4 0 4.6-12.15 4-33.5ZM25.55-4.65L25.55-4.65Q28.15-4.65 28.15-6.95L28.15-6.95Q28.15-7.75 27.02-8.45 25.9-9.15 24.27-9.85 22.65-10.55 21.02-11.43 19.4-12.3 18.27-13.85 17.15-15.4 17.15-17.4L17.15-17.4Q17.15-20.75 20.1-23.25 23.05-25.75 26.9-25.75L26.9-25.75Q28.7-25.75 30.42-25.33 32.15-24.9 33.75-24L33.75-24 30.4-17.9Q30.05-18.2 29.5-18.65 28.95-19.1 27.42-19.83 25.9-20.55 24.72-20.55 23.55-20.55 22.92-20.03 22.3-19.5 22.3-18.57 22.3-17.65 24.02-16.73 25.75-15.8 27.8-15.03 29.85-14.25 31.57-12.48 33.3-10.7 33.3-8.25L33.3-8.25Q33.3-4.75 30.42-2.1 27.55 0.55 23.8 0.55L23.8 0.55Q21.4 0.55 19.32-0.5 17.25-1.55 16.35-2.6L16.35-2.6 15.45-3.65 19.4-8.25Q19.7-7.85 20.25-7.25 20.8-6.65 22.42-5.65 24.05-4.65 25.55-4.65ZM50.39 0Q47.44 0 45.57-1.88 43.69-3.75 43.69-6.93 43.69-10.1 46.59-12.43 49.49-14.75 53.64-14.75L53.64-14.75 57.04-14.75 57.04-15.6Q57.04-18.05 56.04-18.95 55.04-19.85 52.29-19.85L52.29-19.85Q51.14-19.85 49.57-19.38 47.99-18.9 46.04-17.9L46.04-17.9 44.59-21.85Q46.74-23.35 49.82-24.55 52.89-25.75 54.89-25.75L54.89-25.75Q62.74-25.75 62.74-18.15L62.74-18.15 62.74-8.35Q62.74-5.55 64.49-2.1L64.49-2.1 59.19 0.15Q57.94-2.25 57.34-4.15L57.34-4.15Q54.59 0 50.39 0L50.39 0ZM52.49-5.1L52.49-5.1Q54.49-5.1 57.04-7.15L57.04-7.15 57.04-10.5Q54.39-11.1 52.74-11.1L52.74-11.1Q49.59-11.1 49.59-8.3L49.59-8.3Q49.59-6.85 50.39-5.98 51.19-5.1 52.49-5.1ZM77.74 0.5L77.74 0.5Q75.69 0.5 73.64 0.05L73.64 0.05 75.24-5.95Q76.89-5.4 78.44-5.4L78.44-5.4Q81.49-5.4 81.49-10.45L81.49-10.45 80.79-33.5 87.89-34.75 87.19-12.2Q87.19-6.75 84.54-3.13 81.89 0.5 77.74 0.5ZM99.19 0Q96.24 0 94.36-1.88 92.49-3.75 92.49-6.93 92.49-10.1 95.39-12.43 98.29-14.75 102.44-14.75L102.44-14.75 105.84-14.75 105.84-15.6Q105.84-18.05 104.84-18.95 103.84-19.85 101.09-19.85L101.09-19.85Q99.94-19.85 98.36-19.38 96.79-18.9 94.84-17.9L94.84-17.9 93.39-21.85Q95.54-23.35 98.61-24.55 101.69-25.75 103.69-25.75L103.69-25.75Q111.54-25.75 111.54-18.15L111.54-18.15 111.54-8.35Q111.54-5.55 113.29-2.1L113.29-2.1 107.99 0.15Q106.74-2.25 106.14-4.15L106.14-4.15Q103.39 0 99.19 0L99.19 0ZM101.29-5.1L101.29-5.1Q103.29-5.1 105.84-7.15L105.84-7.15 105.84-10.5Q103.19-11.1 101.54-11.1L101.54-11.1Q98.39-11.1 98.39-8.3L98.39-8.3Q98.39-6.85 99.19-5.98 99.99-5.1 101.29-5.1ZM124.28-14.4L126.13-6.25 126.78-6.25 128.43-13.1 131.13-25.45 137.33-24.7 133.58-12.3 130.43-0.6 121.88 0.15 118.93-12 115.33-24.15 122.13-25.4 124.28-14.4ZM145.63 0Q142.68 0 140.81-1.88 138.93-3.75 138.93-6.93 138.93-10.1 141.83-12.43 144.73-14.75 148.88-14.75L148.88-14.75 152.28-14.75 152.28-15.6Q152.28-18.05 151.28-18.95 150.28-19.85 147.53-19.85L147.53-19.85Q146.38-19.85 144.81-19.38 143.23-18.9 141.28-17.9L141.28-17.9 139.83-21.85Q141.98-23.35 145.06-24.55 148.13-25.75 150.13-25.75L150.13-25.75Q157.98-25.75 157.98-18.15L157.98-18.15 157.98-8.35Q157.98-5.55 159.73-2.1L159.73-2.1 154.43 0.15Q153.18-2.25 152.58-4.15L152.58-4.15Q149.83 0 145.63 0L145.63 0ZM147.73-5.1L147.73-5.1Q149.73-5.1 152.28-7.15L152.28-7.15 152.28-10.5Q149.63-11.1 147.98-11.1L147.98-11.1Q144.83-11.1 144.83-8.3L144.83-8.3Q144.83-6.85 145.63-5.98 146.43-5.1 147.73-5.1ZM161.83-4.55L165.73-9.95Q169.98-5.7 174.23-5.7L174.23-5.7Q176.43-5.7 177.75-6.73 179.08-7.75 179.08-9.38 179.08-11 177.48-12.13 175.88-13.25 173.6-14.1 171.33-14.95 169.08-16.03 166.83-17.1 165.23-19.1 163.63-21.1 163.63-23.95L163.63-23.95Q163.63-28.45 167.38-31.73 171.13-35 176.28-35L176.28-35Q178.63-35 180.83-34.5 183.03-34 185.08-33.05L185.08-33.05 181.68-25.75Q180.28-26.85 177.85-27.78 175.43-28.7 173.6-28.7 171.78-28.7 170.65-27.83 169.53-26.95 169.53-25.5 169.53-24.05 171.13-22.93 172.73-21.8 175-20.95 177.28-20.1 179.55-19.07 181.83-18.05 183.43-16.05 185.03-14.05 185.03-11.2L185.03-11.2Q185.03-6.5 181.28-2.98 177.53 0.55 172.53 0.55L172.53 0.55Q168.78 0.55 165.88-1.25L165.88-1.25Q163.33-2.8 162.28-4L162.28-4 161.83-4.55ZM197.83-19.25Q195.63-19.25 194.43-17.68 193.23-16.1 193.23-12.85 193.23-9.6 194.45-7.63 195.68-5.65 198.03-5.65L198.03-5.65Q199.23-5.65 200.38-6.4 201.53-7.15 202.13-7.9L202.13-7.9 202.68-8.7 205.18-6.1Q205.03-5.85 204.8-5.4 204.58-4.95 203.7-3.8 202.83-2.65 201.85-1.78 200.88-0.9 199.33-0.18 197.78 0.55 196.08 0.55L196.08 0.55Q192.33 0.55 189.98-2.5 187.63-5.55 187.63-10.45L187.63-10.45Q187.63-16.55 191.18-21.15 194.73-25.75 199.48-25.75L199.48-25.75Q200.93-25.75 202.38-25.33 203.83-24.9 205.33-24L205.33-24 201.83-17.85Q200.03-19.25 197.83-19.25ZM207.92-24.15L207.92-24.15 213.97-25.45Q214.42-21.6 214.57-18.15L214.57-18.15Q219.12-25.2 223.12-25.2L223.12-25.2 222.57-17.4Q219.67-17.4 218-16.88 216.32-16.35 214.57-14.8L214.57-14.8 214.57-13 215.12-1.25 208.42 0 209.02-12.15Q208.82-18.85 207.92-24.15ZM226.27-24.2L232.97-25.45 232.37-13 232.92-1.25 226.22 0 226.82-12.15 226.27-24.2ZM225.92-32.77Q225.92-34.45 227.22-35.77 228.52-37.1 230.22-37.1 231.92-37.1 232.82-36.18 233.72-35.25 233.72-33.4 233.72-31.55 232.45-30.23 231.17-28.9 229.5-28.9 227.82-28.9 226.87-30 225.92-31.1 225.92-32.77ZM251.82-25.25L251.82-25.25Q255.02-25.25 257.19-22.45 259.37-19.65 259.37-14.9L259.37-14.9Q259.37-8.25 255.94-4.13 252.52 0 247.42 0L247.42 0Q246.37 0 245.07-0.15L245.07-0.15 245.32 9.4 238.47 10.65 239.12-12.15 239.17-12.15Q238.97-18.85 238.07-24.15L238.07-24.15 244.12-25.45Q244.42-22.8 244.62-20.2L244.62-20.2Q244.72-20.45 245.64-21.58 246.57-22.7 248.37-23.98 250.17-25.25 251.82-25.25ZM249.87-18.75L249.87-18.75Q247.22-18.75 244.72-17.3L244.72-17.3 244.72-13 244.92-5.85Q247.62-5.4 249.02-5.4L249.02-5.4Q253.82-5.4 253.82-12.08 253.82-18.75 249.87-18.75ZM262.57-24.2L265.47-24.2 265.47-29.65 272.22-30.95 271.57-24.2 277.62-24.2 277.07-20.1 271.37-20.1 271.12-9.65Q271.12-7.3 271.57-6.53 272.02-5.75 273.22-5.75 274.42-5.75 276.42-6.3L276.42-6.3 276.72-2.75Q273.42 0 270.92 0 268.42 0 266.82-1.83 265.22-3.65 265.22-6.6L265.22-6.6 265.52-12.2 265.47-20.1 262.02-20.1 262.57-24.2ZM303.46-12.65Q303.46-16.1 302.86-17.25 302.26-18.4 300.06-18.4 297.86-18.4 295.06-16.65L295.06-16.65 295.06-13 295.61-1.25 288.91 0 289.51-12.15Q289.31-18.85 288.41-24.15L288.41-24.15 294.46-25.45Q294.81-22.55 294.96-19.8L294.96-19.8Q295.71-20.8 296.66-21.78 297.61-22.75 299.66-23.98 301.71-25.2 303.81-25.2 305.91-25.2 307.36-23.85 308.81-22.5 309.21-20.15L309.21-20.15Q313.36-25.2 317.61-25.2L317.61-25.2Q320.26-25.2 321.81-23.43 323.36-21.65 323.36-18.6L323.36-18.6 323.06-13 323.61-1 316.86 0.25 317.46-12.65Q317.46-16.1 316.86-17.25 316.26-18.4 314.11-18.4 311.96-18.4 309.26-16.75L309.26-16.75 309.06-13 309.61-1 302.86 0.25 303.46-12.65ZM327.61-10.45Q327.61-16.85 331.06-21.3 334.51-25.75 339.13-25.75 343.76-25.75 346.33-22.75 348.91-19.75 348.91-14.8L348.91-14.8Q348.91-8.2 345.58-3.83 342.26 0.55 337.21 0.55L337.21 0.55Q333.06 0.55 330.33-2.58 327.61-5.7 327.61-10.45L327.61-10.45ZM343.31-12.2L343.31-12.2Q343.31-19.45 338.36-19.45L338.36-19.45Q333.21-19.45 333.21-12.65L333.21-12.65Q333.21-9.1 334.66-7.1 336.11-5.1 338.48-5.1 340.86-5.1 342.08-6.93 343.31-8.75 343.31-12.2ZM366.41-4.9L366.41-4.9Q362.51 0 359.66 0L359.66 0Q356.11 0 353.83-2.9 351.56-5.8 351.56-10.35L351.56-10.35Q351.56-16.6 355.03-20.9 358.51-25.2 363.56-25.2L363.56-25.2 366.36-24.8 366.36-25.75 365.76-37.45 372.61-38.7 371.96-13 371.96-8.6Q371.96-5.6 373.46-1.7L373.46-1.7 368.06 0.55Q366.61-2.45 366.41-4.9ZM357.16-12.95Q357.16-9.75 358.33-7.95 359.51-6.15 361.73-6.15 363.96-6.15 366.36-7.95L366.36-7.95 366.36-18.75Q363.36-19.35 361.91-19.35L361.91-19.35Q359.66-19.35 358.41-17.75 357.16-16.15 357.16-12.95ZM384.3 0L384.3 0Q381.6 0 379.93-1.78 378.25-3.55 378.25-6.45L378.25-6.45 378.55-12.2 378-24.2 384.7-25.45 384.05-10.25Q384.05-8.1 384.83-7.1 385.6-6.1 387.3-6.1 389-6.1 392-7.8L392-7.8 392-10.8 391.45-23.95 398.2-25.2 397.6-12.7 397.65-8.6Q397.65-5.4 399.3-2.15L399.3-2.15 394.1 0.15Q392.45-3.1 392.1-5.05L392.1-5.05Q387.6 0 384.3 0ZM403.8-37.45L410.65-38.7 410-13 410.55-1.25 403.8 0 404.4-12.15 403.8-37.45ZM425.45-5.1L425.45-5.1Q426.9-5.1 428.5-5.85 430.1-6.6 431-7.35L431-7.35 431.9-8.1 434.2-5.3Q433.7-4.45 432.65-3.35 431.6-2.25 430.52-1.48 429.45-0.7 427.67-0.08 425.9 0.55 424 0.55L424 0.55Q419.95 0.55 417.4-2.53 414.85-5.6 414.85-10.45L414.85-10.45Q414.85-16.55 418.4-21.15 421.95-25.75 426.7-25.75L426.7-25.75Q430.35-25.75 432.37-23.7 434.4-21.65 434.4-17.95L434.4-17.95Q434.4-15.75 433.65-12.95L433.65-12.95 432.65-11.9 420.15-10.75Q421-5.1 425.45-5.1ZM425.45-20.6L425.45-20.6Q423.25-20.6 421.75-18.82 420.25-17.05 420-14.3L420-14.3 428.5-15.35Q428.65-16.5 428.65-17.25L428.65-17.25Q428.65-20.6 425.45-20.6ZM459.69-25.25L459.69-25.25Q463.04-25.25 465.14-22.35 467.24-19.45 467.24-14.9L467.24-14.9Q467.24-8.35 463.82-4.17 460.39 0 454.94 0L454.94 0Q452.44 0 446.54-0.8L446.54-0.8 447.04-12.15 446.44-37.45 453.29-38.7 452.64-25.8 452.64-20.4Q453.19-21.2 453.99-22.1 454.79-23 456.49-24.13 458.19-25.25 459.69-25.25ZM457.74-18.75L457.74-18.75Q455.44-18.75 452.64-17.35L452.64-17.35 452.64-13 452.94-5.65Q455.04-5.4 456.89-5.4L456.89-5.4Q461.69-5.4 461.69-12.08 461.69-18.75 457.74-18.75ZM477.39 0L477.39 0Q474.69 0 473.02-1.78 471.34-3.55 471.34-6.45L471.34-6.45 471.64-12.2 471.09-24.2 477.79-25.45 477.14-10.25Q477.14-8.1 477.92-7.1 478.69-6.1 480.39-6.1 482.09-6.1 485.09-7.8L485.09-7.8 485.09-10.8 484.54-23.95 491.29-25.2 490.69-12.7 490.74-8.6Q490.74-5.4 492.39-2.15L492.39-2.15 487.19 0.15Q485.54-3.1 485.19-5.05L485.19-5.05Q480.69 0 477.39 0ZM511.39-12.65Q511.39-16.1 510.79-17.25 510.19-18.4 507.99-18.4 505.79-18.4 502.99-16.65L502.99-16.65 502.99-13 503.54-1.25 496.84 0 497.44-12.15Q497.24-18.85 496.34-24.15L496.34-24.15 502.39-25.45Q502.74-22.55 502.89-19.8L502.89-19.8Q503.64-20.8 504.59-21.78 505.54-22.75 507.59-23.98 509.64-25.2 511.91-25.2 514.19-25.2 515.74-23.43 517.29-21.65 517.29-18.6L517.29-18.6 516.99-13 517.54-1 510.79 0.25 511.39-12.65ZM536.24-4.9L536.24-4.9Q532.34 0 529.49 0L529.49 0Q525.93 0 523.66-2.9 521.38-5.8 521.38-10.35L521.38-10.35Q521.38-16.6 524.86-20.9 528.34-25.2 533.38-25.2L533.38-25.2 536.18-24.8 536.18-25.75 535.59-37.45 542.43-38.7 541.78-13 541.78-8.6Q541.78-5.6 543.28-1.7L543.28-1.7 537.88 0.55Q536.43-2.45 536.24-4.9ZM526.99-12.95Q526.99-9.75 528.16-7.95 529.34-6.15 531.56-6.15 533.78-6.15 536.18-7.95L536.18-7.95 536.18-18.75Q533.18-19.35 531.74-19.35L531.74-19.35Q529.49-19.35 528.24-17.75 526.99-16.15 526.99-12.95ZM548.13-37.45L554.98-38.7 554.33-13 554.88-1.25 548.13 0 548.73-12.15 548.13-37.45ZM569.78-5.1L569.78-5.1Q571.23-5.1 572.83-5.85 574.43-6.6 575.33-7.35L575.33-7.35 576.23-8.1 578.53-5.3Q578.03-4.45 576.98-3.35 575.93-2.25 574.85-1.48 573.78-0.7 572-0.08 570.23 0.55 568.33 0.55L568.33 0.55Q564.28 0.55 561.73-2.53 559.18-5.6 559.18-10.45L559.18-10.45Q559.18-16.55 562.73-21.15 566.28-25.75 571.03-25.75L571.03-25.75Q574.68-25.75 576.7-23.7 578.73-21.65 578.73-17.95L578.73-17.95Q578.73-15.75 577.98-12.95L577.98-12.95 576.98-11.9 564.48-10.75Q565.33-5.1 569.78-5.1ZM569.78-20.6L569.78-20.6Q567.58-20.6 566.08-18.82 564.58-17.05 564.33-14.3L564.33-14.3 572.83-15.35Q572.98-16.5 572.98-17.25L572.98-17.25Q572.98-20.6 569.78-20.6ZM582.53-24.15L582.53-24.15 588.58-25.45Q589.03-21.6 589.18-18.15L589.18-18.15Q593.73-25.2 597.73-25.2L597.73-25.2 597.18-17.4Q594.28-17.4 592.6-16.88 590.93-16.35 589.18-14.8L589.18-14.8 589.18-13 589.73-1.25 583.03 0 583.63-12.15Q583.43-18.85 582.53-24.15ZM609.67-34.5L620.52-34.5Q625.32-34.5 628.12-32.33 630.92-30.15 630.92-26.5L630.92-26.5Q630.92-20.65 626.12-18.35L626.12-18.35Q632.62-16.1 632.62-10.05L632.62-10.05Q632.62-5.5 628.72-2.48 624.82 0.55 618.92 0.55L618.92 0.55Q615.82 0.55 609.67 0L609.67 0 610.27-12.15 609.67-34.5ZM619.87-14.85L619.87-14.85 615.82-14.85 615.77-13 616.12-4.85Q619.02-4.6 620.57-4.6L620.57-4.6Q623.22-4.6 624.7-5.93 626.17-7.25 626.17-9.8 626.17-12.35 624.67-13.6 623.17-14.85 619.87-14.85ZM618.72-29.45L618.72-29.45 616.27-29.45 615.97-19.7 619.22-19.7Q621.77-19.7 623.12-21.08 624.47-22.45 624.47-25L624.47-25Q624.47-29.45 618.72-29.45ZM644.72 11L638.27 9.65 643.42-1.9 639.72-12 634.67-24.15 641.32-25.4 644.52-14.75 646.17-9.7 646.82-9.7 648.02-13.35 651.62-25.45 657.77-24.7 648.92-1.45 644.72 11ZM669.61-34.5L680.46-34.5Q685.26-34.5 688.11-31.78 690.96-29.05 690.96-24.3 690.96-19.55 687.36-16.18 683.76-12.8 678.56-12.8L678.56-12.8 675.71-12.8 676.31 0 669.61 0 670.21-12.15 669.61-34.5ZM678.66-29.45L678.66-29.45 676.21-29.45 675.86-17.65 679.26-17.65Q681.76-17.65 683.14-19.3 684.51-20.95 684.51-24L684.51-24Q684.51-29.45 678.66-29.45ZM698.96 0Q696.01 0 694.14-1.88 692.26-3.75 692.26-6.93 692.26-10.1 695.16-12.43 698.06-14.75 702.21-14.75L702.21-14.75 705.61-14.75 705.61-15.6Q705.61-18.05 704.61-18.95 703.61-19.85 700.86-19.85L700.86-19.85Q699.71-19.85 698.14-19.38 696.56-18.9 694.61-17.9L694.61-17.9 693.16-21.85Q695.31-23.35 698.39-24.55 701.46-25.75 703.46-25.75L703.46-25.75Q711.31-25.75 711.31-18.15L711.31-18.15 711.31-8.35Q711.31-5.55 713.06-2.1L713.06-2.1 707.76 0.15Q706.51-2.25 705.91-4.15L705.91-4.15Q703.16 0 698.96 0L698.96 0ZM701.06-5.1L701.06-5.1Q703.06-5.1 705.61-7.15L705.61-7.15 705.61-10.5Q702.96-11.1 701.31-11.1L701.31-11.1Q698.16-11.1 698.16-8.3L698.16-8.3Q698.16-6.85 698.96-5.98 699.76-5.1 701.06-5.1ZM716.86-24.15L716.86-24.15 722.91-25.45Q723.36-21.6 723.51-18.15L723.51-18.15Q728.06-25.2 732.06-25.2L732.06-25.2 731.51-17.4Q728.61-17.4 726.93-16.88 725.26-16.35 723.51-14.8L723.51-14.8 723.51-13 724.06-1.25 717.36 0 717.96-12.15Q717.76-18.85 716.86-24.15ZM740.21 0Q737.26 0 735.38-1.88 733.51-3.75 733.51-6.93 733.51-10.1 736.41-12.43 739.31-14.75 743.46-14.75L743.46-14.75 746.86-14.75 746.86-15.6Q746.86-18.05 745.86-18.95 744.86-19.85 742.11-19.85L742.11-19.85Q740.96-19.85 739.38-19.38 737.81-18.9 735.86-17.9L735.86-17.9 734.41-21.85Q736.56-23.35 739.63-24.55 742.71-25.75 744.71-25.75L744.71-25.75Q752.56-25.75 752.56-18.15L752.56-18.15 752.56-8.35Q752.56-5.55 754.31-2.1L754.31-2.1 749.01 0.15Q747.76-2.25 747.16-4.15L747.16-4.15Q744.41 0 740.21 0L740.21 0ZM742.31-5.1L742.31-5.1Q744.31-5.1 746.86-7.15L746.86-7.15 746.86-10.5Q744.21-11.1 742.56-11.1L742.56-11.1Q739.41-11.1 739.41-8.3L739.41-8.3Q739.41-6.85 740.21-5.98 741.01-5.1 742.31-5.1ZM756.9 4.95L756.9 4.95Q756.9 0.55 765.1-1.95L765.1-1.95Q763.15-2.95 763.15-4.55L763.15-4.55Q763.15-5.2 763.65-5.85 764.15-6.5 765.1-7.2L765.1-7.2 765.1-7.6Q761.5-7.6 759.38-9.6 757.25-11.6 757.25-14.95L757.25-14.95Q757.25-19.3 760.8-22.53 764.35-25.75 769.2-25.75L769.2-25.75Q770.45-25.75 772.85-25.25 775.25-24.75 777.55-24.75L777.55-24.75 781.4-24.75 780.9-20.4 777.15-20.85Q777.65-19.4 777.65-17.55 777.65-15.7 776.78-13.88 775.9-12.05 774.68-10.95 773.45-9.85 772.23-9.03 771-8.2 770.13-7.58 769.25-6.95 769.25-6.45L769.25-6.45Q769.25-5.5 771.25-4.8L771.25-4.8Q776.55-2.65 778.43-1.15 780.3 0.35 780.3 2.55L780.3 2.55Q780.3 6.25 776.58 8.63 772.85 11 767.7 11 762.55 11 759.73 9.35 756.9 7.7 756.9 4.95ZM772-16.05L772-16.05Q772-18.5 770.9-19.65 769.8-20.8 767.45-20.8L767.45-20.8Q762.9-20.8 762.9-16.32 762.9-11.85 767.75-11.85L767.75-11.85Q772-11.85 772-16.05ZM773.8 3.3L773.8 3.3Q773.8 2.4 772.85 1.63 771.9 0.85 769.45-0.2L769.45-0.2Q765.8 0.8 764.43 1.65 763.05 2.5 763.05 3.75 763.05 5 764.43 5.78 765.8 6.55 768.25 6.55 770.7 6.55 772.25 5.65 773.8 4.75 773.8 3.3Z" opacity="1" transform="matrix(1,0,0,1,0,0)" fill="#61777f" class="slogan-text-1" data-fill-palette-color="secondary" id="text-1"></path></svg></g></svg></g></svg></g></svg></g><g></g></svg></g><defs></defs></svg>